<svg
  viewBox="0 0 1200 800"
  xmlns="http://www.w3.org/2000/svg"
  preserveAspectRatio="none"
>
  <g
    fill="none"
    stroke="rgba(112,59,247,0.25)"
    stroke-width="0.6"
  >
    <path d="M0 80 Q300 140 600 80 T1200 80" />
    <path d="M0 120 Q300 180 600 120 T1200 120" />
    <path d="M0 160 Q300 220 600 160 T1200 160" />
    <path d="M0 200 Q300 260 600 200 T1200 200" />
    <path d="M0 240 Q300 300 600 240 T1200 240" />
    <path d="M0 280 Q300 340 600 280 T1200 280" />
    <path d="M0 320 Q300 380 600 320 T1200 320" />
    <path d="M0 360 Q300 420 600 360 T1200 360" />
    <path d="M0 400 Q300 460 600 400 T1200 400" />
  </g>
</svg>
